<?xml version="1.0" encoding="UTF-8" standalone="no"?>
<svg
   xmlns:dc="http://purl.org/dc/elements/1.1/"
   xmlns:cc="http://creativecommons.org/ns#"
   xmlns:rdf="http://www.w3.org/1999/02/22-rdf-syntax-ns#"
   xmlns:svg="http://www.w3.org/2000/svg"
   xmlns="http://www.w3.org/2000/svg"
   xmlns:sodipodi="http://sodipodi.sourceforge.net/DTD/sodipodi-0.dtd"
   xmlns:inkscape="http://www.inkscape.org/namespaces/inkscape"
   width="512"
   height="512"
   version="1.1"
   id="svg14"
   sodipodi:docname="mark_blue.svg"
   inkscape:version="1.0.2 (e86c870879, 2021-01-15)">
  <metadata
     id="metadata20">
    <rdf:RDF>
      <cc:Work
         rdf:about="">
        <dc:format>image/svg+xml</dc:format>
        <dc:type
           rdf:resource="http://purl.org/dc/dcmitype/StillImage" />
        <dc:title></dc:title>
      </cc:Work>
    </rdf:RDF>
  </metadata>
  <defs
     id="defs18" />
  <sodipodi:namedview
     pagecolor="#ffffff"
     bordercolor="#666666"
     borderopacity="1"
     objecttolerance="10"
     gridtolerance="10"
     guidetolerance="10"
     inkscape:pageopacity="0"
     inkscape:pageshadow="2"
     inkscape:window-width="834"
     inkscape:window-height="1015"
     id="namedview16"
     showgrid="false"
     inkscape:zoom="1.5488281"
     inkscape:cx="254.7087"
     inkscape:cy="256"
     inkscape:window-x="1103"
     inkscape:window-y="36"
     inkscape:window-maximized="0"
     inkscape:current-layer="svg14" />
  <g
     id="g5">
    <title
       id="title2">background</title>
    <rect
       fill="none"
       id="canvas_background"
       height="402"
       width="582"
       y="-1"
       x="-1" />
  </g>
  <g
     id="g12">
    <title
       id="title7">Layer 1</title>
    <path
       stroke="null"
       id="svg_3"
       fill="#f7e96f"
       d="m256.08,56c84.87,0 153.81,68.94 153.81,153.96c0,77.06 -87.02,195.03 -153.2,246.04c-85.33,-69.24 -154.58,-167.75 -154.58,-246.04c0,-85.02 68.94,-153.96 153.97,-153.96zm74.79,150.8c0,-41.34 -33.521,-74.86 -74.87,-74.86c-41.35,0 -74.86,33.52 -74.86,74.86c0,41.35 33.51,74.87 74.86,74.87c41.35,0 74.87,-33.52 74.87,-74.87z" />
    <path
       stroke="null"
       id="svg_6"
       d="m257.449604,282.247577c-46.792,0 -78.336784,-26.476171 -78.336784,-73.273171c0,-46.792 30.09518,-77.611983 76.88718,-77.611983c46.798,0 79.071586,28.645577 79.071586,75.437577c0,46.797 -30.823982,75.447577 -77.621982,75.447577zm-0.724802,-138.133172c-35.764,0 -64.86,26.921595 -64.86,62.685595c0,35.77 29.096,64.87 64.86,64.87c35.77,0 64.87,-29.101 64.87,-64.87c0,-35.764 -29.1,-62.685595 -64.87,-62.685595z" />
    <path
       stroke="null"
       id="svg_8"
       d="m256.69,466c-2.235,0 -4.467,-0.746 -6.301,-2.234c-43.852,-35.583 -83.405,-78.891 -111.374,-121.944c-30.685,-47.236 -46.905,-92.833 -46.905,-131.862c0,-90.408 73.557,-163.96 163.97,-163.96c90.325,0 163.81,73.552 163.81,163.96c0,36.966 -18.978,86.08 -53.436,138.297c-30.08,45.58 -68.831,88.818 -103.659,115.663l-6.105,2.08zm-1.334802,-407.248018c-79.385,0 -149.043612,72.55282 -149.043612,151.93282c0,67.695 64.396216,170.797225 151.219216,243.329225c67.55,-55.152 150.332018,-177.557829 150.332018,-244.778829c0,-79.38 -73.210622,-150.483216 -152.507622,-150.483216z" />
  </g>
  <path
     style="fill:#0000ff;stroke-width:0.645649"
     d="m 248.8037,446.03341 c -11.31023,-9.82916 -41.44009,-40.08854 -51.32097,-51.54161 -61.57042,-71.36709 -95.19638,-143.93237 -90.35444,-194.98613 6.12857,-64.62002 54.37779,-120.964 116.91206,-136.526364 8.44281,-2.101087 13.84016,-2.915154 23.25706,-3.507792 30.84951,-1.941466 61.75524,6.920634 89.93504,25.78853 24.13579,16.160216 42.77137,37.344786 55.3462,62.916496 10.77086,21.90326 15.43708,42.38471 14.62955,64.21354 -0.8208,22.18734 -8.79989,47.7741 -25.01087,80.20299 -23.31684,46.64364 -58.30787,95.60293 -95.84871,134.11111 -9.15809,9.39406 -27.74683,26.54172 -28.77227,26.54172 -0.26035,0 -4.20804,-3.24562 -8.77265,-7.21249 z m 25.27448,-164.87143 c 8.31371,-1.31793 14.63805,-3.21053 21.3856,-6.39979 20.27013,-9.5808 33.10822,-26.0185 38.10173,-48.78489 0.9682,-4.41422 1.20277,-8.20409 1.19887,-19.36948 -0.005,-13.12851 -0.10349,-14.26091 -1.82341,-20.87684 -7.43652,-28.60567 -27.12276,-46.7671 -57.22574,-52.79327 -17.52202,-3.50766 -38.68413,-1.72163 -53.708,4.53283 -11.71843,4.87839 -23.77687,14.80599 -30.57441,25.1716 -14.77847,22.53581 -16.80798,57.89383 -4.73081,82.42 10.42398,21.16889 32.40161,34.58748 60.76199,37.09866 7.37348,0.65288 18.93111,0.21913 26.61418,-0.99882 z"
     id="path22" />
</svg>
