<svg width="512" height="512" xmlns="http://www.w3.org/2000/svg">

 <g>
  <title>background</title>
  <rect fill="none" id="canvas_background" height="402" width="582" y="-1" x="-1"/>
 </g>
 <g>
  <title>Layer 1</title>
  <path stroke="null" id="svg_3" fill="#ff6961" d="m256.08,56c84.87,0 153.81,68.94 153.81,153.96c0,77.06 -87.02,195.03 -153.2,246.04c-85.33,-69.24 -154.58,-167.75 -154.58,-246.04c0,-85.02 68.94,-153.96 153.97,-153.96zm74.79,150.8c0,-41.34 -33.521,-74.86 -74.87,-74.86c-41.35,0 -74.86,33.52 -74.86,74.86c0,41.35 33.51,74.87 74.86,74.87c41.35,0 74.87,-33.52 74.87,-74.87z"/>
  <path stroke="null" id="svg_6" d="m257.449604,282.247577c-46.792,0 -78.336784,-26.476171 -78.336784,-73.273171c0,-46.792 30.09518,-77.611983 76.88718,-77.611983c46.798,0 79.071586,28.645577 79.071586,75.437577c0,46.797 -30.823982,75.447577 -77.621982,75.447577zm-0.724802,-138.133172c-35.764,0 -64.86,26.921595 -64.86,62.685595c0,35.77 29.096,64.87 64.86,64.87c35.77,0 64.87,-29.101 64.87,-64.87c0,-35.764 -29.1,-62.685595 -64.87,-62.685595z"/>
  <path stroke="null" id="svg_8" d="m256.69,466c-2.235,0 -4.467,-0.746 -6.301,-2.234c-43.852,-35.583 -83.405,-78.891 -111.374,-121.944c-30.685,-47.236 -46.905,-92.833 -46.905,-131.862c0,-90.408 73.557,-163.96 163.97,-163.96c90.325,0 163.81,73.552 163.81,163.96c0,36.966 -18.978,86.08 -53.436,138.297c-30.08,45.58 -68.831,88.818 -103.659,115.663l-6.105,2.08zm-1.334802,-407.248018c-79.385,0 -149.043612,72.55282 -149.043612,151.93282c0,67.695 64.396216,170.797225 151.219216,243.329225c67.55,-55.152 150.332018,-177.557829 150.332018,-244.778829c0,-79.38 -73.210622,-150.483216 -152.507622,-150.483216z"/>
 </g>
</svg>