<?xml version="1.0" encoding="UTF-8" standalone="no"?>
<svg
   xmlns:dc="http://purl.org/dc/elements/1.1/"
   xmlns:cc="http://creativecommons.org/ns#"
   xmlns:rdf="http://www.w3.org/1999/02/22-rdf-syntax-ns#"
   xmlns:svg="http://www.w3.org/2000/svg"
   xmlns="http://www.w3.org/2000/svg"
   xmlns:sodipodi="http://sodipodi.sourceforge.net/DTD/sodipodi-0.dtd"
   xmlns:inkscape="http://www.inkscape.org/namespaces/inkscape"
   width="512"
   height="512"
   version="1.1"
   id="svg14"
   sodipodi:docname="mark_white.svg"
   inkscape:version="1.0.1 (3bc2e813f5, 2020-09-07)">
  <metadata
     id="metadata20">
    <rdf:RDF>
      <cc:Work
         rdf:about="">
        <dc:format>image/svg+xml</dc:format>
        <dc:type
           rdf:resource="http://purl.org/dc/dcmitype/StillImage" />
        <dc:title></dc:title>
      </cc:Work>
    </rdf:RDF>
  </metadata>
  <defs
     id="defs18" />
  <sodipodi:namedview
     pagecolor="#ffffff"
     bordercolor="#666666"
     borderopacity="1"
     objecttolerance="10"
     gridtolerance="10"
     guidetolerance="10"
     inkscape:pageopacity="0"
     inkscape:pageshadow="2"
     inkscape:window-width="1920"
     inkscape:window-height="1025"
     id="namedview16"
     showgrid="false"
     inkscape:zoom="1.6542969"
     inkscape:cx="256"
     inkscape:cy="256"
     inkscape:window-x="0"
     inkscape:window-y="31"
     inkscape:window-maximized="1"
     inkscape:current-layer="svg14" />
  <g
     id="g5">
    <title
       id="title2">background</title>
    <rect
       fill="none"
       id="canvas_background"
       height="402"
       width="582"
       y="-1"
       x="-1" />
  </g>
  <g
     id="g12">
    <title
       id="title7">Layer 1</title>
    <path
       stroke="null"
       id="svg_3"
       fill="#ffffff"
       d="m256.08,56c84.87,0 153.81,68.94 153.81,153.96c0,77.06 -87.02,195.03 -153.2,246.04c-85.33,-69.24 -154.58,-167.75 -154.58,-246.04c0,-85.02 68.94,-153.96 153.97,-153.96zm74.79,150.8c0,-41.34 -33.521,-74.86 -74.87,-74.86c-41.35,0 -74.86,33.52 -74.86,74.86c0,41.35 33.51,74.87 74.86,74.87c41.35,0 74.87,-33.52 74.87,-74.87z" />
    <path
       stroke="null"
       id="svg_6"
       d="m257.449604,282.247577c-46.792,0 -78.336784,-26.476171 -78.336784,-73.273171c0,-46.792 30.09518,-77.611983 76.88718,-77.611983c46.798,0 79.071586,28.645577 79.071586,75.437577c0,46.797 -30.823982,75.447577 -77.621982,75.447577zm-0.724802,-138.133172c-35.764,0 -64.86,26.921595 -64.86,62.685595c0,35.77 29.096,64.87 64.86,64.87c35.77,0 64.87,-29.101 64.87,-64.87c0,-35.764 -29.1,-62.685595 -64.87,-62.685595z" />
    <path
       stroke="null"
       id="svg_8"
       d="m256.69,466c-2.235,0 -4.467,-0.746 -6.301,-2.234c-43.852,-35.583 -83.405,-78.891 -111.374,-121.944c-30.685,-47.236 -46.905,-92.833 -46.905,-131.862c0,-90.408 73.557,-163.96 163.97,-163.96c90.325,0 163.81,73.552 163.81,163.96c0,36.966 -18.978,86.08 -53.436,138.297c-30.08,45.58 -68.831,88.818 -103.659,115.663l-6.105,2.08zm-1.334802,-407.248018c-79.385,0 -149.043612,72.55282 -149.043612,151.93282c0,67.695 64.396216,170.797225 151.219216,243.329225c67.55,-55.152 150.332018,-177.557829 150.332018,-244.778829c0,-79.38 -73.210622,-150.483216 -152.507622,-150.483216z" />
  </g>
  <path
     style="fill:#b3b3b3;stroke-width:0.604486"
     d="M 247.08656,444.48897 C 234.92641,433.87833 210.79244,409.78445 200.51057,397.99038 169.21691,362.0942 146.8493,329.294 129.96659,294.5436 c -20.09333,-41.35892 -26.82652,-74.86478 -21.4115,-106.54832 5.23656,-30.63935 21.1302,-60.9524 43.90233,-83.73243 13.84817,-13.852961 26.42854,-22.831042 43.69842,-31.185719 13.64133,-6.599284 27.81142,-10.902811 42.91854,-13.034575 8.07025,-1.138792 26.30642,-0.955333 35.06021,0.352712 33.38174,4.988099 64.58343,21.370107 89.47912,46.979732 12.00072,12.34488 20.27206,23.68962 27.70833,38.00398 10.2478,19.72642 15.28317,38.55658 15.92208,59.54192 0.3566,11.7126 -0.49355,19.5406 -3.42672,31.55237 -11.89657,48.71829 -50.94786,115.45205 -100.91955,172.4589 -13.94062,15.90322 -42.92516,44.1304 -45.31445,44.1304 -0.36916,0 -5.09275,-3.85812 -10.49684,-8.5736 z m 27.95476,-163.42926 c 32.12129,-5.61453 52.89705,-26.0351 59.01315,-58.00422 1.44928,-7.57548 1.45545,-24.57423 0.0116,-32.03778 -4.63723,-23.9713 -17.18778,-41.0879 -37.56548,-51.2323 -22.69936,-11.30016 -55.6318,-11.59173 -77.9878,-0.69047 -25.5122,12.44029 -39.58793,37.35489 -39.57954,70.05736 0.004,13.20293 2.32949,24.29169 7.27128,34.6629 3.4515,7.24357 5.95201,10.87625 11.44134,16.62171 11.4742,12.00957 27.56293,19.21696 48.07786,21.53781 6.78882,0.76802 22.49287,0.27789 29.31759,-0.91501 z"
     id="path22" />
</svg>
